<?xml version="1.0" encoding="utf-8"?>
<!-- Generator: Adobe Illustrator 22.0.1, SVG Export Plug-In . SVG Version: 6.00 Build 0)  -->
<svg version="1.1" id="Слой_1" xmlns="http://www.w3.org/2000/svg" xmlns:xlink="http://www.w3.org/1999/xlink" x="0px" y="0px"
	 viewBox="0 0 64.8 64.8" style="enable-background:new 0 0 64.8 64.8;" xml:space="preserve">
<style type="text/css">
	.st0{fill:#007FCA;}
</style>
<path class="st0" d="M52.8,64.8H12c-6.6,0-12-5.4-12-12V12C0,5.4,5.4,0,12,0h40.8c6.6,0,12,5.4,12,12v40.8
	C64.8,59.4,59.4,64.8,52.8,64.8z M45.8,40.5c2.7,0,5.3,0,8,0c0.4,0,0.5-0.1,0.5-0.4c0.2-1.6,0.4-3.1,0.6-4.7
	c0.2-1.6,0.4-3.1,0.6-4.7c0-0.2,0-0.4,0-0.6c-0.2,0-0.3,0-0.5,0c-3.1,0-6.2,0-9.2,0c-0.5,0-0.5,0-0.5-0.5c0-2.3,0-4.6,0-6.9
	c0-0.6,0.1-1.1,0.3-1.7c0.4-1.4,1.5-2,2.9-2.3c0.5-0.1,1.1-0.1,1.6-0.1c1.8,0,3.5,0,5.3,0c0.5,0,0.5,0,0.5-0.5c0-2.8,0-5.6,0-8.5
	c0-0.3-0.1-0.5-0.4-0.5c-1.4-0.1-2.8-0.2-4.2-0.3c-1.4-0.1-2.9-0.1-4.3-0.1c-2.9,0.1-5.7,0.9-8,2.8c-2.1,1.7-3.4,4-4,6.7
	c-0.3,1.2-0.4,2.5-0.4,3.8c0,2.5,0,5,0,7.5c0,0.3-0.1,0.4-0.4,0.4c-2.7,0-5.4,0-8,0c-0.3,0-0.4,0.1-0.4,0.4c0,3.2,0,6.4,0,9.6
	c0,0.3,0.1,0.4,0.4,0.4c2.7,0,5.3,0,8,0c0.5,0,0.5,0,0.5,0.5c0,8,0,15.9,0,23.9h10.8c0-8,0-15.9,0-23.9
	C45.3,40.6,45.4,40.5,45.8,40.5z"/>
</svg>
