<svg xmlns="http://www.w3.org/2000/svg" width="41.98" height="36.52" viewBox="0 0 41.98 36.52">
  <defs>
    <style>
      .a48943b9-972b-4fda-97a5-20e168574932 {
        opacity: 0.8;
      }

      .cce96a24-090a-4486-806b-f51973039376 {
        fill: #1a1a1a;
      }
    </style>
  </defs>
  <title>Ресурс 37</title>
  <g id="c10ca4e5-4599-4a06-9ad5-baeb529399f1" data-name="Слой 2">
    <g id="052e31d7-e232-4af6-90a7-9b4737a746fe" data-name="Layer 2">
      <g class="a48943b9-972b-4fda-97a5-20e168574932">
        <path class="cce96a24-090a-4486-806b-f51973039376" d="M36.81,34.17a2.35,2.35,0,0,0-2.35-2.35H7.52a2.35,2.35,0,1,0,0,4.7H34.46A2.35,2.35,0,0,0,36.81,34.17Z"/>
        <path class="cce96a24-090a-4486-806b-f51973039376" d="M2.8,15.13h.11L6.64,28.62h28.7l3.73-13.49h.11a2.8,2.8,0,1,0-2.79-2.79,2.71,2.71,0,0,0,.13.86l-6.74,3.94-7.24-12a2.8,2.8,0,1,0-3.09,0l-7.25,12L5.46,13.2a2.72,2.72,0,0,0,.14-.86,2.8,2.8,0,1,0-2.8,2.79Z"/>
      </g>
    </g>
  </g>
</svg>
