<svg xmlns="http://www.w3.org/2000/svg" width="141.17" height="141.17" viewBox="0 0 141.17 141.17">
  <defs>
    <style>
      .bcd2ae52-a0cf-47b4-b619-cb371422d2ed {
        fill: #fff;
      }
    </style>
  </defs>
  <title>bag</title>
  <g id="1139d1c0-ed19-4592-b0f0-e0cbac5b39ce" data-name="Слой 2">
    <g id="8bccfd50-c0ad-4520-9ba0-85d6b2dc4037" data-name="Layer 2">
      <g>
        <path class="bcd2ae52-a0cf-47b4-b619-cb371422d2ed" d="M89,17.37A37.41,37.41,0,0,1,102.84,20a15.15,15.15,0,0,0-13-7.42H51.3a15.15,15.15,0,0,0-13,7.42,37.41,37.41,0,0,1,13.83-2.65Z"/>
        <path class="bcd2ae52-a0cf-47b4-b619-cb371422d2ed" d="M31.83,22.43A20.21,20.21,0,0,1,51.3,7.56H89.87a20.21,20.21,0,0,1,19.47,14.87L114.13,40A27.68,27.68,0,0,1,126,43.87l-5.39-19.71A32.83,32.83,0,0,0,89,0H52.16a32.82,32.82,0,0,0-31.6,24.16l-5.4,19.71A27.87,27.87,0,0,1,27,40Z"/>
        <path class="bcd2ae52-a0cf-47b4-b619-cb371422d2ed" d="M123.52,75.63a22.53,22.53,0,0,1,14.31,5.1l-3.9-18a22.76,22.76,0,0,0-26.8-17.39L76.24,51.81a27.28,27.28,0,0,1-11.31,0L34,45.38A22.76,22.76,0,0,0,7.24,62.77l-3.91,18a22.58,22.58,0,0,1,14.32-5.1Z"/>
        <path class="bcd2ae52-a0cf-47b4-b619-cb371422d2ed" d="M123.52,80.67H17.65A17.66,17.66,0,0,0,0,98.31v25.21a17.67,17.67,0,0,0,17.65,17.65H123.52a17.67,17.67,0,0,0,17.65-17.65V98.31A17.66,17.66,0,0,0,123.52,80.67ZM20.9,86.44a2.5,2.5,0,0,1,.83-.53,2.44,2.44,0,0,1,1.46-.15,1.9,1.9,0,0,1,.46.15,1.32,1.32,0,0,1,.42.23,2.4,2.4,0,0,1,.41.3A2.51,2.51,0,0,1,25,89.19a2.29,2.29,0,0,1-1.36,1.36,2.46,2.46,0,0,1-1,.2A2.6,2.6,0,0,1,20.9,90a3.9,3.9,0,0,1-.56-.83,2.43,2.43,0,0,1-.17-1A2.64,2.64,0,0,1,20.9,86.44ZM5.78,101.57,13.34,94a2.52,2.52,0,0,1,3.57,3.57l-7.57,7.56a2.52,2.52,0,0,1-3.56-3.57ZM39.6,90,11.87,117.74a2.52,2.52,0,0,1-3.57-3.56L36,86.45A2.52,2.52,0,0,1,39.6,90Z"/>
      </g>
    </g>
  </g>
</svg>
