<svg xmlns="http://www.w3.org/2000/svg" width="31.57" height="39.47" viewBox="0 0 31.57 39.47">
  <defs>
    <style>
      .\39 415fb84-7ccf-41a5-9854-b86e3b506f39 {
        opacity: 0.8;
      }

      .\33 de45f02-388b-48a5-9031-dd088bcca78a {
        fill: #1a1a1a;
      }
    </style>
  </defs>
  <title>Ресурс 38</title>
  <g id="e5a16ad3-f780-42db-b881-829d094d873c" data-name="Слой 2">
    <g id="fd1fdc04-b043-441b-a5af-6ffa5ceb8721" data-name="Layer 2">
      <g class="9415fb84-7ccf-41a5-9854-b86e3b506f39">
        <path class="3de45f02-388b-48a5-9031-dd088bcca78a" d="M25.18,11.23l-.51-.42c2.34,7.52-.77,13.34-3,12.3-1.19-.56-1-2.37-1-2.37a29.46,29.46,0,0,0-.87-11.52,15.39,15.39,0,0,0-4.18-6.54A11.25,11.25,0,0,0,11.66,0,11.61,11.61,0,0,1,9.33,7.62a31,31,0,0,1-2.94,3.82C3.55,14.66,0,18.67,0,24.57c0,7,5.92,13.53,13.06,14.9a6.26,6.26,0,0,1-2.64-4.19h0s-1.22-4.79,3.39-11.6c0,0,0,3.31,4.82,6.59h0a5.41,5.41,0,0,1,1.72,7.45,5.55,5.55,0,0,1-1.76,1.75c7.06-1.41,13-7.9,13-14.9A17.62,17.62,0,0,0,25.18,11.23Z"/>
      </g>
    </g>
  </g>
</svg>
