<?xml version="1.0" encoding="utf-8"?>
<!-- Generator: Adobe Illustrator 22.0.1, SVG Export Plug-In . SVG Version: 6.00 Build 0)  -->
<svg version="1.1" id="Слой_1" xmlns="http://www.w3.org/2000/svg" xmlns:xlink="http://www.w3.org/1999/xlink" x="0px" y="0px"
	 viewBox="0 0 233.6 195.8" style="enable-background:new 0 0 233.6 195.8;" xml:space="preserve">
<style type="text/css">
	.st0{fill:#FFFFFF;}
</style>
<g>
	<path class="st0" d="M228.7,0H4.9C2.2,0,0,2.2,0,4.9v134c0-0.3,0.2-0.5,0.5-0.5h232.2c0.3,0,0.5,0.2,0.5,0.5c0,0.3-0.2,0.5-0.5,0.5
		H0.5c-0.3,0-0.5-0.2-0.5-0.5v17c0,2.7,2.2,4.9,4.9,4.9h223.8c2.7,0,4.9-2.2,4.9-4.9V4.9C233.6,2.2,231.4,0,228.7,0z M224.1,131.3
		c0,0.4-0.3,0.7-0.7,0.7H11.6c-0.4,0-0.7-0.3-0.7-0.7V9.7c0-0.4,0.3-0.7,0.7-0.7h211.9c0.4,0,0.7,0.3,0.7,0.7V131.3z"/>
	<path class="st0" d="M93.5,160.4c-0.5,14.5-1.1,25.8-3.9,28.1c-2.8,2.5-5.5,4.7-8.1,6.2c-0.7,0.5-0.2,0.9,1.4,1.2h67.6
		c1.6-0.2,2.1-0.6,1.4-1.2c-2.5-1.5-5.2-3.6-8.1-6.2c-2.8-2.3-3.4-13.6-3.9-28.1L93.5,160.4z"/>
</g>
</svg>
