<svg xmlns="http://www.w3.org/2000/svg" width="76" height="76" viewBox="0 0 76 76">
  <defs>
    <style>
      .ca2139d8-b948-4155-8c05-334519cde3b0 {
        opacity: 0.8;
      }

      .\36 69f07f5-eb23-4d8a-83ba-ea900b9ecfd6 {
        fill: #fff;
      }
    </style>
  </defs>
  <title>Ресурс 36</title>
  <g id="25c1f86b-77c3-4f4a-af6a-f431d0c0e1e0" data-name="Слой 2">
    <g id="549244bc-524b-4a1d-b3d9-b01857ea2332" data-name="Layer 2">
      <g class="ca2139d8-b948-4155-8c05-334519cde3b0">
        <path class="669f07f5-eb23-4d8a-83ba-ea900b9ecfd6" d="M38,0A38,38,0,1,0,76,38,38,38,0,0,0,38,0ZM19.29,52,14.9,55.29a29.08,29.08,0,0,1,0-35.12l4.39,3.29a23.65,23.65,0,0,0,0,28.54Zm8.78-6.58-4.39,3.29a18.18,18.18,0,0,1,0-22l4.39,3.3a12.74,12.74,0,0,0,0,15.37Zm10.25-.36a7.33,7.33,0,1,1,7.33-7.33A7.33,7.33,0,0,1,38.32,45.06ZM53,48.71l-4.39-3.29a12.74,12.74,0,0,0,0-15.37L53,26.75a18.18,18.18,0,0,1,0,22Zm8.78,6.58L57.34,52a23.61,23.61,0,0,0,0-28.54l4.39-3.29a29.08,29.08,0,0,1,0,35.12Z"/>
      </g>
    </g>
  </g>
</svg>
