<svg xmlns="http://www.w3.org/2000/svg" width="58.63" height="35.13" viewBox="0 0 58.63 35.13">
  <defs>
    <style>
      .b60985fd-e003-4970-9c06-e6d24cf2b112 {
        opacity: 0.8;
      }

      .e5f72e21-f860-4f0a-a4d5-8f1236d95ebe {
        fill: #1a1a1a;
      }
    </style>
  </defs>
  <title>Ресурс 39</title>
  <g id="d461aa79-0e2c-4598-9970-1e73a929abaa" data-name="Слой 2">
    <g id="a7fa7b24-1654-4da0-9aa6-bcbc42dbb75f" data-name="Layer 2">
      <g class="b60985fd-e003-4970-9c06-e6d24cf2b112">
        <path class="e5f72e21-f860-4f0a-a4d5-8f1236d95ebe" d="M10.29,31.83,5.9,35.13A29.1,29.1,0,0,1,5.9,0l4.39,3.29a23.65,23.65,0,0,0,0,28.54Zm8.78-6.58-4.39,3.29a18.17,18.17,0,0,1,0-21.95l4.39,3.29a12.74,12.74,0,0,0,0,15.37Zm10.25-.36a7.33,7.33,0,1,1,7.33-7.33A7.33,7.33,0,0,1,29.32,24.89ZM44,28.54l-4.39-3.29a12.74,12.74,0,0,0,0-15.37L44,6.59a18.17,18.17,0,0,1,0,22Zm8.78,6.59-4.39-3.3a23.61,23.61,0,0,0,0-28.54L52.73,0a29.1,29.1,0,0,1,0,35.13Z"/>
      </g>
    </g>
  </g>
</svg>
