<?xml version="1.0" encoding="utf-8"?>
<!-- Generator: Adobe Illustrator 22.0.1, SVG Export Plug-In . SVG Version: 6.00 Build 0)  -->
<svg version="1.1" id="Слой_1" xmlns="http://www.w3.org/2000/svg" xmlns:xlink="http://www.w3.org/1999/xlink" x="0px" y="0px"
	 viewBox="0 0 27.7 27.7" style="enable-background:new 0 0 27.7 27.7;" xml:space="preserve">
<style type="text/css">
	.st0{opacity:0.4;fill:none;}
</style>
<path class="st0" d="M22.4,12.6c-0.1,0.1-0.2,0.2-0.3,0.3c-0.7,0.7-1.3,1.3-2,2c-0.9,0.9-1.8,1.8-2.6,2.6c-1,1-1.9,1.9-2.9,2.9
	c-0.9,0.9-1.9,1.9-2.8,2.8c-0.8,0.8-1.6,1.6-2.4,2.4c-0.5,0.5-1,1-1.5,1.5c-0.1,0.1-0.2,0.2-0.3,0.3c-0.1,0.1-0.3,0.2-0.4,0.2
	c-0.1,0-0.2,0-0.3,0c-1.1,0-2.3,0-3.4,0c-0.9,0-1.7,0-2.6,0C0.3,27.7,0,27.4,0,27c0-0.1,0-0.1,0-0.2c0-1.1,0-2.3,0-3.4
	c0-0.9,0-1.7,0-2.6c0-0.3,0.2-0.4,0.4-0.6c0.2-0.2,0.3-0.3,0.5-0.5c0.6-0.6,1.2-1.2,1.8-1.8l2.5-2.5c1-1,1.9-1.9,2.9-2.9
	s1.9-1.9,2.9-2.9c0.8-0.8,1.7-1.7,2.5-2.5c0.6-0.6,1.2-1.2,1.8-1.8c0.2,0.2,0.3,0.3,0.5,0.5C15.8,6,16,6.2,16.1,6.3
	c0.5,0.5,0.9,0.9,1.4,1.4c1.3,1.3,2.6,2.6,3.9,3.9c0.1,0.1,0.1,0.1,0.2,0.2c0.1,0.1,0.2,0.2,0.3,0.3C22.1,12.2,22.2,12.4,22.4,12.6z
	 M27.2,5c-0.3-0.3-0.5-0.5-0.8-0.8c-0.9-0.9-1.8-1.8-2.8-2.8c-0.3-0.3-0.6-0.6-0.9-0.9c-0.2-0.2-0.4-0.3-0.6-0.4
	c-0.6-0.3-1.3-0.3-1.9,0.1C20,0.5,19.7,0.8,19.5,1c-0.4,0.4-0.9,0.9-1.3,1.3c-0.5,0.5-1.1,1.1-1.6,1.6l6.3,6.3
	c0.2,0.2,0.3,0.3,0.5,0.5l0.5,0.5c0.2-0.2,0.5-0.5,0.7-0.7c0.7-0.7,1.5-1.5,2.2-2.2c0.2-0.2,0.3-0.3,0.5-0.5c0,0,0,0,0,0
	c0,0,0,0,0,0C27.9,6.9,27.9,5.8,27.2,5z"/>
</svg>
