<svg xmlns="http://www.w3.org/2000/svg" width="61.85" height="96.48" viewBox="0 0 61.85 96.48">
  <defs>
    <style>
      .\39 4d59c10-3fea-4674-81ff-c1d2f4076c3d {
        fill: #fff;
      }
    </style>
  </defs>
  <title>phone</title>
  <g id="a4e901ae-98d3-4ffb-92f8-d543a108427d" data-name="Слой 2">
    <g id="ea0af8a1-ae72-41b0-bae2-dde4c786d486" data-name="Layer 2">
      <path class="94d59c10-3fea-4674-81ff-c1d2f4076c3d" d="M56.9,0H5A5,5,0,0,0,0,5V91.53a5,5,0,0,0,5,5h52a5,5,0,0,0,5-5V5A5,5,0,0,0,56.9,0Zm1.24,87.82a5.07,5.07,0,0,1-5.08,5H8c-2.72,0-4.33-2.23-4.33-5V10C3.71,7.3,5.32,5,8,5h5.57V6.31c0,1.36,1.48,2.35,2.84,2.35h28.2A2.27,2.27,0,0,0,47,6.31V5h6.06A5.18,5.18,0,0,1,58.14,10Z"/>
    </g>
  </g>
</svg>
