<?xml version="1.0" encoding="utf-8"?>
<!-- Generator: Adobe Illustrator 22.0.1, SVG Export Plug-In . SVG Version: 6.00 Build 0)  -->
<svg version="1.1" id="Слой_1" xmlns="http://www.w3.org/2000/svg" xmlns:xlink="http://www.w3.org/1999/xlink" x="0px" y="0px"
	 viewBox="0 0 36.3 36.3" style="enable-background:new 0 0 36.3 36.3;" xml:space="preserve">
<style type="text/css">
	.st0{opacity:0.4;}
</style>
<path class="st0" d="M0,17.6c0,1.3,1,2.3,2.3,2.3h2.3v14.2c0,1.3,1,2.3,2.3,2.3h9.1V19.9h4.5v16.5h9.1c1.3,0,2.3-1,2.3-2.3V19.9h2.3
	c1.3,0,2.3-1,2.3-2.3v-4c0-1.3-1-2.3-2.3-2.3h-1.7c2.5-2.8,2.3-7.1-0.5-9.6c-0.5-0.5-1.2-0.9-1.8-1.2c-2.5-1.1-5.4-0.6-7.4,1.2
	L18.2,6l-4.5-4.1c-2-1.9-4.9-2.4-7.4-1.3c-3.4,1.5-5,5.5-3.5,8.9c0.3,0.7,0.7,1.3,1.2,1.8H2.3c-1.3,0-2.3,1-2.3,2.3V17.6z M25.7,5.2
	c0.9-0.8,2.3-0.8,3.2,0.1c0.8,0.9,0.8,2.3-0.1,3.2c-0.4,0.4-1,0.6-1.5,0.6h-5.7L25.7,5.2z M8.2,4.8c0.3-0.1,0.6-0.2,0.9-0.2
	c0.6,0,1.1,0.2,1.5,0.6l4.2,3.9H9.1c-1.2,0-2.2-1-2.2-2.2C6.8,6,7.4,5.2,8.2,4.8L8.2,4.8z"/>
</svg>
