<?xml version="1.0" encoding="utf-8"?>
<!-- Generator: Adobe Illustrator 22.0.1, SVG Export Plug-In . SVG Version: 6.00 Build 0)  -->
<svg version="1.1" id="Слой_1" xmlns="http://www.w3.org/2000/svg" xmlns:xlink="http://www.w3.org/1999/xlink" x="0px" y="0px"
	 viewBox="0 0 26.8 34" style="enable-background:new 0 0 26.8 34;" xml:space="preserve">
<style type="text/css">
	.st0{fill:none;}
</style>
<path class="st0" d="M26.8,24v0.3c0,1.9-1.5,3.4-3.4,3.4h-20c-1.9,0-3.4-1.5-3.4-3.4V24c0-0.7,0.2-1.4,0.6-1.9
	c0.9-1.4,1.5-3,1.5-4.7v-3.3c0-5.5,3.4-9.6,8.7-10.7V2c0-1.1,0.9-2,2-2H14c1.1,0,2,0.9,2,2v1.3c5.2,1.1,8.7,5.3,8.7,10.7v3.3
	c0,1.7,0.6,3.3,1.5,4.7C26.6,22.6,26.8,23.3,26.8,24z M13.4,34c2,0,3.6-1.6,3.7-3.7H9.7C9.8,32.3,11.4,34,13.4,34z"/>
</svg>
