<?xml version="1.0" encoding="utf-8"?>
<!-- Generator: Adobe Illustrator 22.0.0, SVG Export Plug-In . SVG Version: 6.00 Build 0)  -->
<svg version="1.1" id="Слой_1" xmlns="http://www.w3.org/2000/svg" xmlns:xlink="http://www.w3.org/1999/xlink" x="0px" y="0px"
	 viewBox="0 0 319 223" style="enable-background:new 0 0 319 223;" xml:space="preserve">
<style type="text/css">
	.st0{opacity:0.65;}
	.st1{clip-path:url(#SVGID_2_);}
	.st2{clip-path:url(#SVGID_6_);}
	.st3{opacity:0;}
	.st4{fill:url(#SVGID_9_);}
</style>
<g>
	<g class="st3">
		<path id="ticket-bottom" d="M295.5,0H23c0,12.7-10.3,23-23,23v188c0,6.6,5.4,12,12,12h295c6.6,0,12-5.4,12-12V22.5c-0.2,0-0.3,0-0.5,0
			C306,22.5,295.8,12.5,295.5,0z"/>
	</g>
	<g>
		<linearGradient id="SVGID_9_" gradientUnits="userSpaceOnUse" x1="0" y1="111.5" x2="319" y2="111.5">
			<stop  offset="0" style="stop-color:#333333"/>
			<stop  offset="1" style="stop-color:#6A99FF"/>
		</linearGradient>
		<path class="st4" d="M295.5,0H23c0,12.7-10.3,23-23,23v188c0,6.6,5.4,12,12,12h295c6.6,0,12-5.4,12-12V22.5c-0.2,0-0.3,0-0.5,0
			C306,22.5,295.8,12.5,295.5,0z"/>
	</g>
</g>
</svg>
