<svg xmlns="http://www.w3.org/2000/svg" xmlns:xlink="http://www.w3.org/1999/xlink" height="0" width="0">
	<defs>
		<clipPath id="ticket-top">
			<path d="M295.5,436.5c0-12.7,10.3-23,23-23c0.2,0,0.3,0,0.5,0V12c0-6.6-5.4-12-12-12H12C5.4,0,0,5.4,0,12v402 c12.7,0,23,10.3,23,23h272.5C295.5,436.8,295.5,436.7,295.5,436.5z"/>
		</clipPath>
		<clipPath id="ticket-bottom">
			<path d="M295.5,0H23c0,12.7-10.3,23-23,23v188c0,6.6,5.4,12,12,12h295c6.6,0,12-5.4,12-12V22.5c-0.2,0-0.3,0-0.5,0
        C306,22.5,295.8,12.5,295.5,0z"/>
		</clipPath>
	</defs>
	 <path class="c7e3df56-19ef-4cb3-9358-f19f43486530" d="M58.61,117.22a58.61,58.61,0,1,1,58.61-58.61A58.67,58.67,0,0,1,58.61,117.22Zm0-102.38a43.77,43.77,0,1,0,43.77,43.77A43.83,43.83,0,0,0,58.61,14.84Z"/>
</svg>