<svg xmlns="http://www.w3.org/2000/svg" xmlns:xlink="http://www.w3.org/1999/xlink" width="117.22" height="117.22" viewBox="0 0 117.22 117.22">
  <defs>
    <style>
      .c7e3df56-19ef-4cb3-9358-f19f43486530 {
        fill: #fff;
      }

      .d29f995e-645f-4cb4-800b-197cb1d2b3ef {
        fill: url(#1f6b1933-bd9f-4267-9c89-0912271cb180);
      }
    </style>
    <linearGradient id="1f6b1933-bd9f-4267-9c89-0912271cb180" x1="39.68" y1="58.61" x2="77.1" y2="58.61" gradientUnits="userSpaceOnUse">
      <stop offset="0" stop-color="#8000ff"/>
      <stop offset="1" stop-color="#005eff"/>
    </linearGradient>
  </defs>
  <title>logo</title>
  <g id="97c24967-f150-4a73-997d-3e1e8a4d6536" data-name="Слой 2">
    <g id="ace0471b-b766-4cbb-8ec7-b86ce8739c16" data-name="Layer 2">
      <g>
        <path class="c7e3df56-19ef-4cb3-9358-f19f43486530" d="M58.61,117.22a58.61,58.61,0,1,1,58.61-58.61A58.67,58.67,0,0,1,58.61,117.22Zm0-102.38a43.77,43.77,0,1,0,43.77,43.77A43.83,43.83,0,0,0,58.61,14.84Z"/>
        <path class="d29f995e-645f-4cb4-800b-197cb1d2b3ef" d="M58.61,87.93A29.32,29.32,0,1,1,87.93,58.61,29.35,29.35,0,0,1,58.61,87.93Zm0-43.79A14.47,14.47,0,1,0,73.08,58.61,14.49,14.49,0,0,0,58.61,44.14Z"/>
      </g>
    </g>
  </g>
</svg>
