<?xml version="1.0" encoding="utf-8"?>
<!-- Generator: Adobe Illustrator 22.0.1, SVG Export Plug-In . SVG Version: 6.00 Build 0)  -->
<svg version="1.1" id="Слой_1" xmlns="http://www.w3.org/2000/svg" xmlns:xlink="http://www.w3.org/1999/xlink" x="0px" y="0px"
	 viewBox="0 0 76 76" style="enable-background:new 0 0 76 76;" xml:space="preserve">
<style type="text/css">
	.st0{fill:none;}
	.st1{opacity:0.8;}
	.st2{fill:#131313;}
</style>
<path class="st0" d="M649,54"/>
<path class="st0" d="M-991,54"/>
<path class="st0" d="M649,56"/>
<path class="st0" d="M-991,56"/>
<g>
	<g class="st1">
		<g>
			<path class="st2" d="M19.3,52l-4.4,3.3C11.2,50.4,9,44.3,9,37.7s2.2-12.7,5.9-17.6l4.4,3.3c-3,4-4.8,8.9-4.8,14.3
				C14.5,43.1,16.3,48,19.3,52z M28.1,45.4l-4.4,3.3c-2.3-3.1-3.7-6.9-3.7-11s1.4-7.9,3.7-11l4.4,3.3c-1.6,2.1-2.6,4.8-2.6,7.7
				S26.5,43.3,28.1,45.4z M38.3,45.1c-4,0-7.3-3.3-7.3-7.3s3.3-7.3,7.3-7.3s7.3,3.3,7.3,7.3S42.4,45.1,38.3,45.1z M53,48.7l-4.4-3.3
				c1.6-2.1,2.6-4.8,2.6-7.7s-1-5.5-2.6-7.7l4.4-3.3c2.3,3.1,3.7,6.9,3.7,11S55.3,45.6,53,48.7z M61.7,55.3L57.3,52
				c3-4,4.8-8.9,4.8-14.3s-1.8-10.3-4.8-14.3l4.4-3.3c3.7,4.9,5.9,11,5.9,17.6C67.6,44.3,65.4,50.4,61.7,55.3z"/>
		</g>
	</g>
	<path class="st0" d="M38,0c21,0,38,17,38,38S59,76,38,76S0,59,0,38S17,0,38,0z"/>
</g>
</svg>
