<?xml version="1.0" encoding="utf-8"?>
<!-- Generator: Adobe Illustrator 22.0.1, SVG Export Plug-In . SVG Version: 6.00 Build 0)  -->
<svg version="1.1" id="Слой_1" xmlns="http://www.w3.org/2000/svg" xmlns:xlink="http://www.w3.org/1999/xlink" x="0px" y="0px"
	 viewBox="0 0 76 76" style="enable-background:new 0 0 76 76;" xml:space="preserve">
<style type="text/css">
	.st0{fill:none;}
	.st1{fill:#131313;}
</style>
<path class="st0" d="M457,54"/>
<path class="st0" d="M-1183,54"/>
<path class="st0" d="M457,56"/>
<path class="st0" d="M-1183,56"/>
<path class="st0" d="M457,52"/>
<path class="st0" d="M-1183,52"/>
<path class="st1" d="M53.8,50.1c0-1.3-1.1-2.4-2.4-2.4H24.5c-1.3,0-2.4,1.1-2.4,2.4s1.1,2.4,2.4,2.4h26.9
	C52.8,52.5,53.8,51.4,53.8,50.1z M19.8,31.1h0.1l3.7,13.5H38h14.4l3.7-13.5h0.1c1.5,0,2.8-1.3,2.8-2.8s-1.3-2.8-2.8-2.8
	s-2.8,1.3-2.8,2.8c0,0.3,0,0.6,0.1,0.9l-6.7,3.9l-7.2-12c0.8-0.5,1.3-1.4,1.3-2.3c0-1.5-1.3-2.8-2.8-2.8s-2.8,1.3-2.8,2.8
	c0,1,0.5,1.8,1.3,2.3l-7.2,12l-6.7-3.9c0.1-0.3,0.1-0.6,0.1-0.9c0-1.5-1.3-2.8-2.8-2.8s-2.8,1.3-2.8,2.8
	C17,29.8,18.3,31.1,19.8,31.1z M38,0c21,0,38,17,38,38S59,76,38,76S0,59,0,38S17,0,38,0z"/>
</svg>
