<?xml version="1.0" encoding="utf-8"?>
<!-- Generator: Adobe Illustrator 22.0.1, SVG Export Plug-In . SVG Version: 6.00 Build 0)  -->
<svg version="1.1" id="Слой_1" xmlns="http://www.w3.org/2000/svg" xmlns:xlink="http://www.w3.org/1999/xlink" x="0px" y="0px"
	 viewBox="0 0 76 76" style="enable-background:new 0 0 76 76;" xml:space="preserve">
<style type="text/css">
	.st0{fill:none;}
	.st1{fill:#131313;}
</style>
<path class="st0" d="M548,54"/>
<path class="st0" d="M-1092,54"/>
<path class="st1" d="M47.1,28l-0.5-0.4c2.3,7.5-0.8,13.3-3,12.3c-1.2-0.6-1-2.4-1-2.4c0.5-3.9,0.2-7.8-0.9-11.5
	c-0.8-2.5-2.3-4.7-4.2-6.5c-1.1-1.2-2.4-2.1-3.9-2.7c0.1,2.7-0.7,5.4-2.3,7.6c-0.9,1.3-1.9,2.6-2.9,3.8c-2.8,3.2-6.4,7.2-6.4,13.1
	c0,7,5.9,13.5,13.1,14.9c-1.4-1-2.4-2.5-2.6-4.2l0,0c0,0-1.2-4.8,3.4-11.6c0,0,0,3.3,4.8,6.6l0,0c2.5,1.6,3.3,4.9,1.7,7.5
	c-0.4,0.7-1,1.3-1.8,1.7c7.1-1.4,13-7.9,13-14.9C53.4,36.1,51,31.3,47.1,28z M38,0c21,0,38,17,38,38S59,76,38,76S0,59,0,38
	S17,0,38,0z"/>
</svg>
