<?xml version="1.0" encoding="utf-8"?>
<!-- Generator: Adobe Illustrator 22.0.1, SVG Export Plug-In . SVG Version: 6.00 Build 0)  -->
<svg version="1.1" id="Слой_1" xmlns="http://www.w3.org/2000/svg" xmlns:xlink="http://www.w3.org/1999/xlink" x="0px" y="0px"
	 viewBox="0 0 255.2 528" style="enable-background:new 0 0 255.2 528;" xml:space="preserve">
<style type="text/css">
	.st0{opacity:0.1;}
	.st1{clip-path:url(#SVGID_2_);}
	.st2{clip-path:url(#SVGID_4_);}
	.st3{clip-path:url(#SVGID_6_);}
	.st4{fill:url(#SVGID_9_);}
</style>
<g>
	<g class="st0">
		<g>
			<defs>
				<path id="SVGID_1_" d="M236.4,349.2c0-10.2,8.2-18.4,18.4-18.4c0.1,0,0.3,0,0.4,0V9.6c0-5.3-4.3-9.6-9.6-9.6H9.6
					C4.3,0,0,4.3,0,9.6v321.6c10.2,0,18.4,8.2,18.4,18.4h218C236.4,349.5,236.4,349.3,236.4,349.2z"/>
			</defs>
			<clipPath id="SVGID_2_">
				<use xlink:href="#SVGID_1_"  style="overflow:visible;"/>
			</clipPath>
			<g class="st1">
				<defs>
					<rect id="SVGID_3_" x="-284.8" y="-48.8" width="724.8" height="460.1"/>
				</defs>
				<clipPath id="SVGID_4_">
					<use xlink:href="#SVGID_3_"  style="overflow:visible;"/>
				</clipPath>
				<rect x="-284.8" y="-48.8" class="st2" width="724.8" height="460.1"/>
			</g>
		</g>
	</g>
	<g>
		<g>
			<defs>
				<path id="SVGID_5_" d="M236.4,349.2c0-10.2,8.2-18.4,18.4-18.4c0.1,0,0.3,0,0.4,0V9.6c0-5.3-4.3-9.6-9.6-9.6H9.6
					C4.3,0,0,4.3,0,9.6v321.6c10.2,0,18.4,8.2,18.4,18.4h218C236.4,349.5,236.4,349.3,236.4,349.2z"/>
			</defs>
			<clipPath id="SVGID_6_">
				<use xlink:href="#SVGID_5_"  style="overflow:visible;"/>
			</clipPath>
			<g class="st3">
				<g>
					<defs>
						<rect id="SVGID_7_" x="-284.8" y="-48.8" width="724.8" height="460.1"/>
					</defs>
					<clipPath id="SVGID_8_">
						<use xlink:href="#SVGID_7_"  style="overflow:visible;"/>
					</clipPath>
					<g transform="matrix(1 0 0 1 0 -3.814697e-06)" style="clip-path:url(#SVGID_8_);">
						
							<image style="overflow:visible;" width="2048" height="1300" xlink:href="B827845E.jpg"  transform="matrix(0.3539 0 0 0.3539 -284.8 -48.8)">
						</image>
					</g>
				</g>
			</g>
		</g>
	</g>
</g>
<g>
	<g class="st0">
		<path d="M236.4,349.6h-218c0,10.2-8.2,18.4-18.4,18.4v150.4c0,5.3,4.3,9.6,9.6,9.6h236c5.3,0,9.6-4.3,9.6-9.6V367.6
			c-0.1,0-0.3,0-0.4,0C244.8,367.6,236.6,359.6,236.4,349.6z"/>
	</g>
	<g>
		<linearGradient id="SVGID_9_" gradientUnits="userSpaceOnUse" x1="0" y1="438.8" x2="255.2" y2="438.8">
			<stop  offset="0" style="stop-color:#9800FF"/>
			<stop  offset="1" style="stop-color:#005EFF"/>
		</linearGradient>
		<path class="st4" d="M236.4,349.6h-218c0,10.2-8.2,18.4-18.4,18.4v150.4c0,5.3,4.3,9.6,9.6,9.6h236c5.3,0,9.6-4.3,9.6-9.6V367.6
			c-0.1,0-0.3,0-0.4,0C244.8,367.6,236.6,359.6,236.4,349.6z"/>
	</g>
</g>
</svg>
