<?xml version="1.0" encoding="UTF-8"?><!DOCTYPE svg PUBLIC "-//W3C//DTD SVG 1.1//EN" "http://www.w3.org/Graphics/SVG/1.1/DTD/svg11.dtd"><svg xmlns="http://www.w3.org/2000/svg"><defs>
        <style>
            .e91a8924-0073-4e79-900d-dbc7a3f9957e{fill:#1a237e}
        </style>
    
        <style>
            .\38 c738cf7-8d94-4a27-baa1-21e0aed73f1b{fill:red}
        </style>
    
        <style>
            .\36 391fed1-e368-4944-bbe4-7dc6724bbb64{fill:#1a1a1a}
        </style>
    
        <style>
            .a48943b9-972b-4fda-97a5-20e168574932{opacity:.8}.cce96a24-090a-4486-806b-f51973039376{fill:#1a1a1a}
        </style>
    
        <style>
            .\38 b7c89fa-66f0-4d6c-a0c9-b114c536b621{fill:#fff}
        </style>
    
        <style>
            .\39 415fb84-7ccf-41a5-9854-b86e3b506f39{opacity:.8}.\33 de45f02-388b-48a5-9031-dd088bcca78a{fill:#1a1a1a}
        </style>
    
        <style>
            .\33 9e83387-b87a-4dbe-bbae-0de6935605de{fill:red}
        </style>
    
        <style>
            .ca2139d8-b948-4155-8c05-334519cde3b0{opacity:.8}.\36 69f07f5-eb23-4d8a-83ba-ea900b9ecfd6{fill:#fff}
        </style>
    
        <style>
            .b60985fd-e003-4970-9c06-e6d24cf2b112{opacity:.8}.e5f72e21-f860-4f0a-a4d5-8f1236d95ebe{fill:#1a1a1a}
        </style>
    
        <style>
            .\30 c53118f-48ab-4300-93ec-c6cb8872f734{fill:none;stroke:#fff;stroke-miterlimit:10;stroke-width:16px;opacity:.8}
        </style>
    
        <style>
            .\31 f200778-0c60-4872-8846-080be95bc57d{fill:#1a237e}
        </style>
    
        <style>
            .\33 c13fb8d-d600-44b1-913c-f10a873c51b9{opacity:.8}.fe488f7d-17cd-4795-9088-98adba91fed6{fill:#1a1a1a}
        </style>
    </defs><symbol id="icon-arrow-right" viewBox="0 0 35.47 121.11">
    
    <title>
        &#x420;&#x435;&#x441;&#x443;&#x440;&#x441; 42
    </title>
    <g id="94ce8ae0-ddd9-4437-9d09-1c633f2084d9" data-name="&#x421;&#x43B;&#x43E;&#x439; 2">
        <path class="e91a8924-0073-4e79-900d-dbc7a3f9957e" d="M4.45 121.11L0 118.83l29.86-58.27L0 2.28 4.45 0l31.02 60.56-31.02 60.55z" id="db382f94-b96b-4816-ab93-c35e998ab398" data-name="Layer 2"/>
    </g>
</symbol><symbol id="icon-card-fb" viewBox="0 0 64.8 64.8">
    <style>
        .st0{fill:#007fca}
    </style>
    <path class="st0" d="M52.8 64.8H12c-6.6 0-12-5.4-12-12V12C0 5.4 5.4 0 12 0h40.8c6.6 0 12 5.4 12 12v40.8c0 6.6-5.4 12-12 12zm-7-24.3h8c.4 0 .5-.1.5-.4.2-1.6.4-3.1.6-4.7.2-1.6.4-3.1.6-4.7v-.6h-9.7c-.5 0-.5 0-.5-.5v-6.9c0-.6.1-1.1.3-1.7.4-1.4 1.5-2 2.9-2.3.5-.1 1.1-.1 1.6-.1h5.3c.5 0 .5 0 .5-.5V9.6c0-.3-.1-.5-.4-.5l-4.2-.3c-1.4-.1-2.9-.1-4.3-.1-2.9.1-5.7.9-8 2.8-2.1 1.7-3.4 4-4 6.7-.3 1.2-.4 2.5-.4 3.8v7.5c0 .3-.1.4-.4.4h-8c-.3 0-.4.1-.4.4v9.6c0 .3.1.4.4.4h8c.5 0 .5 0 .5.5v23.9h10.8V40.8c-.2-.2-.1-.3.3-.3z"/>
</symbol><symbol id="icon-card-vk" viewBox="0 0 64.8 64.8">
    <style>
        .st0{fill:#0082bd}
    </style>
    <path class="st0" d="M52.8 64.8H12c-6.6 0-12-5.4-12-12V12C0 5.4 5.4 0 12 0h40.8c6.6 0 12 5.4 12 12v40.8c0 6.6-5.4 12-12 12zM36.2 20.6c0-.3 0-.6-.1-.9-.1-.6-.4-1-1-1.1h-8.8c-.9.1-1.4 1-.9 1.8.1.2.3.4.5.7.9 1.1 1.4 2.4 1.4 3.8v7.8c0 .4 0 .7-.1 1.1-.1.5-.4.7-1 .6-.1 0-.3-.1-.4-.1-.3-.1-.6-.3-.8-.6-.7-.8-1.4-1.7-2-2.7-2.1-3.1-3.7-6.5-5-10-.2-.5-.3-1-.6-1.5s-.7-.8-1.3-.9H10.5c-.3 0-.5 0-.8.1-.6.1-1 .5-1.1 1.1v.8c.2 1.1.5 2.2.9 3.2.9 2.6 2.1 5.1 3.5 7.5 1.4 2.5 3 5 4.8 7.3 1.8 2.4 4 4.3 6.7 5.8 2.9 1.6 5.9 2.5 9.3 2.3.6 0 1.2-.1 1.7-.4.5-.2.7-.5.8-1v-.7-4.4-1c.1-.6.4-.9.9-.9s1 0 1.4.2c.7.3 1.3.7 1.9 1.2 1.4 1.1 2.7 2.4 4 3.8.7.8 1.4 1.6 2.1 2.3.7.7 1.5 1 2.4 1h4.9c.3 0 .5 0 .8-.1.8-.2 1.2-.7 1.2-1.5 0-.2-.1-.5-.1-.7-.3-.8-.8-1.6-1.3-2.3-1-1.4-2.2-2.7-3.3-4-.8-.9-1.7-1.8-2.6-2.7-.4-.4-.7-.7-1-1.2-.3-.4-.3-.9 0-1.3.1-.2.3-.5.4-.7 1.2-1.8 2.4-3.5 3.6-5.3 1-1.6 2-3.2 2.8-4.9.3-.6.5-1.2.6-1.9.1-.7-.2-1.2-.9-1.4-.2 0-.4-.1-.5-.1h-5.4c-1.1 0-1.8.5-2.2 1.6-.3.8-.7 1.7-1.1 2.5-1.2 2.3-2.5 4.6-4.1 6.7-.7.9-1.4 1.7-2.3 2.4-.3.2-.6.4-.9.5-.5.1-.8 0-1-.5 0-.1-.1-.2-.1-.3-.1-.3-.1-.5-.1-.8v-5.1c-.2-1.9-.2-3.5-.2-5.1z"/>
</symbol><symbol id="icon-circle" viewBox="0 0 20 20">
    
    <title>
        &#x420;&#x435;&#x441;&#x443;&#x440;&#x441; 52
    </title>
    <g id="79e62d73-e80a-4707-8faf-2886cf85bdfa" data-name="&#x421;&#x43B;&#x43E;&#x439; 2">
        <path class="8c738cf7-8d94-4a27-baa1-21e0aed73f1b" d="M20 10A10 10 0 1 1 10 0a10 10 0 0 1 10 10z" id="30822a5b-e6af-404e-8017-20b35d1e7c24" data-name="Layer 2"/>
    </g>
</symbol><symbol id="icon-close" viewBox="0 0 33.23 33.23">
    
    <title>
        &#x420;&#x435;&#x441;&#x443;&#x440;&#x441; 5 (2)
    </title>
    <g id="bdec4ecc-8a01-4d5c-a5f1-60951a0fb5d4" data-name="&#x421;&#x43B;&#x43E;&#x439; 2">
        <g id="32b0a36d-6538-470f-a913-947e5b5138d2" data-name="Layer 2">
            <path class="6391fed1-e368-4944-bbe4-7dc6724bbb64" transform="rotate(45 16.615 16.622)" d="M-1.38 11.12h36v11h-36z"/>
            <path class="6391fed1-e368-4944-bbe4-7dc6724bbb64" transform="rotate(-45 16.622 16.615)" d="M-1.38 11.12h36v11h-36z"/>
        </g>
    </g>
</symbol><symbol id="icon-crown" viewBox="0 0 41.98 36.52">
    
    <title>
        &#x420;&#x435;&#x441;&#x443;&#x440;&#x441; 37
    </title>
    <g id="c10ca4e5-4599-4a06-9ad5-baeb529399f1" data-name="&#x421;&#x43B;&#x43E;&#x439; 2">
        <g class="a48943b9-972b-4fda-97a5-20e168574932" id="052e31d7-e232-4af6-90a7-9b4737a746fe" data-name="Layer 2">
            <path class="cce96a24-090a-4486-806b-f51973039376" d="M36.81 34.17a2.35 2.35 0 0 0-2.35-2.35H7.52a2.35 2.35 0 1 0 0 4.7h26.94a2.35 2.35 0 0 0 2.35-2.35z"/>
            <path class="cce96a24-090a-4486-806b-f51973039376" d="M2.8 15.13h.11l3.73 13.49h28.7l3.73-13.49h.11a2.8 2.8 0 1 0-2.79-2.79 2.71 2.71 0 0 0 .13.86l-6.74 3.94-7.24-12a2.8 2.8 0 1 0-3.09 0l-7.25 12-6.74-3.94a2.72 2.72 0 0 0 .14-.86 2.8 2.8 0 1 0-2.8 2.79z"/>
        </g>
    </g>
</symbol><symbol id="icon-eye" viewBox="0 0 23.55 14.72">
    
    <title>
        watch_1
    </title>
    <g id="4ab46d7d-cebc-4655-b359-99d3dac87805" data-name="&#x421;&#x43B;&#x43E;&#x439; 2">
        <path class="8b7c89fa-66f0-4d6c-a0c9-b114c536b621" d="M11.77 14.72c-4.47 0-8.71-2.54-11.65-7a.74.74 0 0 1 0-.72C3.06 2.53 7.3 0 11.77 0s8.72 2.53 11.65 7a.71.71 0 0 1 0 .81c-2.93 4.37-7.18 6.91-11.65 6.91zm0-11.78a4.42 4.42 0 1 0 4.42 4.42 4.42 4.42 0 0 0-4.42-4.42z" id="48e23d1d-ffff-419f-b261-dee3946a7d68" data-name="Layer 2"/>
    </g>
</symbol><symbol id="icon-facebook" viewBox="0 0 10 19">
    <title>
        facebook
    </title>
    <path d="M9.766.157v2.946H8.014c-.64 0-1.071.134-1.295.402-.223.268-.335.67-.335 1.205v2.11h3.27l-.435 3.303H6.384v8.471H2.97v-8.47H.123V6.82H2.97V4.387c0-1.384.387-2.457 1.161-3.22C4.904.404 5.934.023 7.222.023c1.093 0 1.941.045 2.544.134z" fill-rule="evenodd"/>
</symbol><symbol id="icon-flame" viewBox="0 0 31.57 39.47">
    
    <title>
        &#x420;&#x435;&#x441;&#x443;&#x440;&#x441; 38
    </title>
    <g id="e5a16ad3-f780-42db-b881-829d094d873c" data-name="&#x421;&#x43B;&#x43E;&#x439; 2">
        <g class="9415fb84-7ccf-41a5-9854-b86e3b506f39" id="fd1fdc04-b043-441b-a5af-6ffa5ceb8721" data-name="Layer 2">
            <path class="3de45f02-388b-48a5-9031-dd088bcca78a" d="M25.18 11.23l-.51-.42c2.34 7.52-.77 13.34-3 12.3-1.19-.56-1-2.37-1-2.37a29.46 29.46 0 0 0-.87-11.52 15.39 15.39 0 0 0-4.18-6.54A11.25 11.25 0 0 0 11.66 0a11.61 11.61 0 0 1-2.33 7.62 31 31 0 0 1-2.94 3.82C3.55 14.66 0 18.67 0 24.57c0 7 5.92 13.53 13.06 14.9a6.26 6.26 0 0 1-2.64-4.19s-1.22-4.79 3.39-11.6c0 0 0 3.31 4.82 6.59a5.41 5.41 0 0 1 1.72 7.45 5.55 5.55 0 0 1-1.76 1.75c7.06-1.41 13-7.9 13-14.9a17.62 17.62 0 0 0-6.41-13.34z"/>
        </g>
    </g>
</symbol><symbol id="icon-heart" viewBox="0 0 36.41 32.15">
    
    <title>
        &#x420;&#x435;&#x441;&#x443;&#x440;&#x441; 44
    </title>
    <g id="9fb402fa-f130-4a9f-9c5b-3aebc9831bd9" data-name="&#x421;&#x43B;&#x43E;&#x439; 2">
        <path class="39e83387-b87a-4dbe-bbae-0de6935605de" d="M33.53 2.88a9.86 9.86 0 0 0-13.93 0L18.22 4.3 16.8 2.88A9.84 9.84 0 0 0 2.88 16.8l15.34 15.35L33.57 16.8a9.91 9.91 0 0 0-.04-13.92z" id="52351811-a181-43ce-b44e-78018564c4bb" data-name="Layer 2"/>
    </g>
</symbol><symbol id="icon-music-circle" viewBox="0 0 76 76">
    
    <title>
        &#x420;&#x435;&#x441;&#x443;&#x440;&#x441; 36
    </title>
    <g id="25c1f86b-77c3-4f4a-af6a-f431d0c0e1e0" data-name="&#x421;&#x43B;&#x43E;&#x439; 2">
        <g class="ca2139d8-b948-4155-8c05-334519cde3b0" id="549244bc-524b-4a1d-b3d9-b01857ea2332" data-name="Layer 2">
            <path class="669f07f5-eb23-4d8a-83ba-ea900b9ecfd6" d="M38 0a38 38 0 1 0 38 38A38 38 0 0 0 38 0zM19.29 52l-4.39 3.29a29.08 29.08 0 0 1 0-35.12l4.39 3.29a23.65 23.65 0 0 0 0 28.54zm8.78-6.58l-4.39 3.29a18.18 18.18 0 0 1 0-22l4.39 3.3a12.74 12.74 0 0 0 0 15.37zm10.25-.36a7.33 7.33 0 1 1 7.33-7.33 7.33 7.33 0 0 1-7.33 7.33zM53 48.71l-4.39-3.29a12.74 12.74 0 0 0 0-15.37l4.39-3.3a18.18 18.18 0 0 1 0 22zm8.78 6.58L57.34 52a23.61 23.61 0 0 0 0-28.54l4.39-3.29a29.08 29.08 0 0 1 0 35.12z"/>
        </g>
    </g>
</symbol><symbol id="icon-music" viewBox="0 0 58.63 35.13">
    
    <title>
        &#x420;&#x435;&#x441;&#x443;&#x440;&#x441; 39
    </title>
    <g id="d461aa79-0e2c-4598-9970-1e73a929abaa" data-name="&#x421;&#x43B;&#x43E;&#x439; 2">
        <g class="b60985fd-e003-4970-9c06-e6d24cf2b112" id="a7fa7b24-1654-4da0-9aa6-bcbc42dbb75f" data-name="Layer 2">
            <path class="e5f72e21-f860-4f0a-a4d5-8f1236d95ebe" d="M10.29 31.83l-4.39 3.3A29.1 29.1 0 0 1 5.9 0l4.39 3.29a23.65 23.65 0 0 0 0 28.54zm8.78-6.58l-4.39 3.29a18.17 18.17 0 0 1 0-21.95l4.39 3.29a12.74 12.74 0 0 0 0 15.37zm10.25-.36a7.33 7.33 0 1 1 7.33-7.33 7.33 7.33 0 0 1-7.33 7.33zM44 28.54l-4.39-3.29a12.74 12.74 0 0 0 0-15.37L44 6.59a18.17 18.17 0 0 1 0 22zm8.78 6.59l-4.39-3.3a23.61 23.61 0 0 0 0-28.54L52.73 0a29.1 29.1 0 0 1 0 35.13z"/>
        </g>
    </g>
</symbol><symbol id="icon-play" viewBox="0 0 147.84 170.71">
    
    <title>
        &#x420;&#x435;&#x441;&#x443;&#x440;&#x441; 41
    </title>
    <g id="2a26d27c-c856-432c-b30c-3f9a2db1573a" data-name="&#x421;&#x43B;&#x43E;&#x439; 2">
        <path class="0c53118f-48ab-4300-93ec-c6cb8872f734" d="M8 85.36v-71.5l61.92 35.75 61.92 35.75-61.92 35.75L8 156.86z" id="6b0127c9-bf3b-487b-aadd-89504823493b" data-name="Layer 2"/>
    </g>
</symbol><symbol id="icon-play_1" viewBox="0 0 147.8 170.7">
    <style>
        .st0{opacity:.8;fill:none;stroke:#fff;stroke-width:16;stroke-miterlimit:10}
    </style>
    <path class="st0" d="M8 85.4V13.9l61.9 35.7 61.9 35.7L69.9 121 8 156.9V85.4z"/>
</symbol><symbol id="icon-rotate" viewBox="0 0 46.27 46.89">
    
    <title>
        &#x420;&#x435;&#x441;&#x443;&#x440;&#x441; 53
    </title>
    <g id="3bbc524e-34ee-4cd3-9485-c045d400d64f" data-name="&#x421;&#x43B;&#x43E;&#x439; 2">
        <path class="1f200778-0c60-4872-8846-080be95bc57d" d="M45.13 32.32l-7.88-1.91a15.11 15.11 0 0 1-2.88 4 15.47 15.47 0 1 1-2.7-24l-5.09 5.09 19.69 4.23L42 0l-4.62 4.66a23.39 23.39 0 1 0 7.75 27.66z" id="49721ef4-b05d-4354-a887-fbfd3fb27d0e" data-name="Layer 2"/>
    </g>
</symbol><symbol id="icon-search" viewBox="0 0 22.74 23.85">
    
    <title>
        search
    </title>
    <g id="c51f0c3b-ba51-4afe-87f0-e3f2c1f68f2e" data-name="&#x421;&#x43B;&#x43E;&#x439; 2">
        <g class="3c13fb8d-d600-44b1-913c-f10a873c51b9" id="e48857ab-e7c1-4c02-89d5-70805fd99d48" data-name="Layer 2">
            <path class="fe488f7d-17cd-4795-9088-98adba91fed6" d="M.73 19.51l4.06-4.06a9.87 9.87 0 1 1 3.91 3.31l-4.36 4.37a2.52 2.52 0 0 1-1.77.72 2.6 2.6 0 0 1-1.82-.75 2.55 2.55 0 0 1-.02-3.59zM18.8 9.85a5.91 5.91 0 1 0-5.91 5.91 5.92 5.92 0 0 0 5.91-5.91z"/>
        </g>
    </g>
</symbol><symbol id="icon-ticket_bottom" viewBox="0 0 319 223">
    <style>
        .st0{opacity:.65}.st1{clip-path:url(#SVGID_2_)}.st2{clip-path:url(#SVGID_6_)}.st3{opacity:0}.st4{fill:url(#SVGID_9_)}
    </style>
    <g class="st3">
        <path id="ticket-bottom" d="M295.5 0H23c0 12.7-10.3 23-23 23v188c0 6.6 5.4 12 12 12h295c6.6 0 12-5.4 12-12V22.5h-.5c-12.5 0-22.7-10-23-22.5z"/>
    </g>
    <linearGradient id="SVGID_9_" gradientUnits="userSpaceOnUse" y1="111.5" x2="319" y2="111.5">
        <stop offset="0" stop-color="#333"/>
        <stop offset="1" stop-color="#6a99ff"/>
    </linearGradient>
    <path class="st4" d="M295.5 0H23c0 12.7-10.3 23-23 23v188c0 6.6 5.4 12 12 12h295c6.6 0 12-5.4 12-12V22.5h-.5c-12.5 0-22.7-10-23-22.5z"/>
</symbol><symbol id="icon-ticket_top" viewBox="0 0 319 437"/></svg>